<svg xmlns="http://www.w3.org/2000/svg" width="1920" height="1080" viewBox="0 0 1920 1080"><rect width="100%" height="100%" fill="#0B162A"/><line x1="0" y1="0" x2="260" y2="1080" stroke="#1F3353" stroke-width="1" opacity="0.35"/><line x1="120" y1="0" x2="380" y2="1080" stroke="#1F3353" stroke-width="1" opacity="0.35"/><line x1="240" y1="0" x2="500" y2="1080" stroke="#1F3353" stroke-width="1" opacity="0.35"/><line x1="360" y1="0" x2="620" y2="1080" stroke="#1F3353" stroke-width="1" opacity="0.35"/><line x1="480" y1="0" x2="740" y2="1080" stroke="#1F3353" stroke-width="1" opacity="0.35"/><line x1="600" y1="0" x2="860" y2="1080" stroke="#1F3353" stroke-width="1" opacity="0.35"/><line x1="720" y1="0" x2="980" y2="1080" stroke="#1F3353" stroke-width="1" opacity="0.35"/><line x1="840" y1="0" x2="1100" y2="1080" stroke="#1F3353" stroke-width="1" opacity="0.35"/><line x1="960" y1="0" x2="1220" y2="1080" stroke="#1F3353" stroke-width="1" opacity="0.35"/><line x1="1080" y1="0" x2="1340" y2="1080" stroke="#1F3353" stroke-width="1" opacity="0.35"/><line x1="1200" y1="0" x2="1460" y2="1080" stroke="#1F3353" stroke-width="1" opacity="0.35"/><line x1="1320" y1="0" x2="1580" y2="1080" stroke="#1F3353" stroke-width="1" opacity="0.35"/><line x1="1440" y1="0" x2="1700" y2="1080" stroke="#1F3353" stroke-width="1" opacity="0.35"/><line x1="1560" y1="0" x2="1820" y2="1080" stroke="#1F3353" stroke-width="1" opacity="0.35"/><line x1="1680" y1="0" x2="1940" y2="1080" stroke="#1F3353" stroke-width="1" opacity="0.35"/><line x1="1800" y1="0" x2="2060" y2="1080" stroke="#1F3353" stroke-width="1" opacity="0.35"/><text x="960.0" y="70" fill="#fff" font-size="56" font-weight="700" text-anchor="middle" font-family="Noto Sans CJK SC, Arial">Kenny 的 AI Agent 协作体系</text><rect x="760" y="135" width="390" height="120" rx="28" fill="#1E2E49" stroke="#F59E0B" stroke-width="3"/><text x="830" y="208" fill="#F59E0B" font-size="58" font-weight="700" text-anchor="middle" font-family="Noto Sans CJK SC, Arial">K</text><text x="890" y="183" fill="#fff" font-size="34" font-weight="700" text-anchor="start" font-family="Noto Sans CJK SC, Arial">Kenny</text><text x="890" y="221" fill="#E2E8F0" font-size="22" font-weight="400" text-anchor="start" font-family="Noto Sans CJK SC, Arial">最终决策者 / 任务发起人</text><rect x="220" y="310" width="1480" height="595" rx="40" fill="#14233B" stroke="#54709A" stroke-width="3"/><text x="960" y="360" fill="#EFF6FF" font-size="40" font-weight="700" text-anchor="middle" font-family="Noto Sans CJK SC, Arial">Kenny 的数字工作台</text><rect x="620" y="410" width="680" height="230" rx="24" fill="#14233B" stroke="#8B5CF6" stroke-width="3"/><text x="648" y="458" fill="#F8FAFC" font-size="42" font-weight="700" text-anchor="start" font-family="Noto Sans CJK SC, Arial">🐱</text><text x="708" y="458" fill="#F8FAFC" font-size="29" font-weight="700" text-anchor="start" font-family="Noto Sans CJK SC, Arial">猫｜Notion AI</text><rect x="1126" y="428" width="150" height="42" rx="21" fill="#8B5CF6"/><text x="1201" y="457" fill="#fff" font-size="19" font-weight="700" text-anchor="middle" font-family="Noto Sans CJK SC, Arial">主参谋和调度中枢</text><text x="648" y="502" fill="#8B5CF6" font-size="22" font-weight="700" text-anchor="start" font-family="Noto Sans CJK SC, Arial">定位：无限上下文中枢</text><text x="648" y="538" fill="#F8FAFC" font-size="20" font-weight="700" text-anchor="start" font-family="Noto Sans CJK SC, Arial">职责：</text><text x="678" y="570" fill="#CBD5E1" font-size="19" font-weight="400" text-anchor="start" font-family="Noto Sans CJK SC, Arial">思考、讨论、任务拆解、派单、记录</text><text x="678" y="599" fill="#CBD5E1" font-size="19" font-weight="400" text-anchor="start" font-family="Noto Sans CJK SC, Arial">Notion 操作、长期记忆维护</text><rect x="285" y="675" width="430" height="190" rx="24" fill="#14233B" stroke="#F97316" stroke-width="3"/><text x="313" y="723" fill="#F8FAFC" font-size="42" font-weight="700" text-anchor="start" font-family="Noto Sans CJK SC, Arial">🦞</text><text x="373" y="723" fill="#F8FAFC" font-size="29" font-weight="700" text-anchor="start" font-family="Noto Sans CJK SC, Arial">虾｜OpenClaw</text><rect x="541" y="693" width="150" height="42" rx="21" fill="#F97316"/><text x="616" y="722" fill="#fff" font-size="19" font-weight="700" text-anchor="middle" font-family="Noto Sans CJK SC, Arial">生图与备援</text><text x="313" y="767" fill="#F97316" font-size="22" font-weight="700" text-anchor="start" font-family="Noto Sans CJK SC, Arial">定位：GPT 5.5 + GPT Image 2.0 生图主入口</text><text x="313" y="803" fill="#F8FAFC" font-size="20" font-weight="700" text-anchor="start" font-family="Noto Sans CJK SC, Arial">职责：</text><text x="343" y="835" fill="#CBD5E1" font-size="19" font-weight="400" text-anchor="start" font-family="Noto Sans CJK SC, Arial">生图、视觉素材、banner、icon、插图</text><text x="343" y="864" fill="#CBD5E1" font-size="19" font-weight="400" text-anchor="start" font-family="Noto Sans CJK SC, Arial">宣传图、备援执行、短审计、短验证、文档整理</text><rect x="745" y="675" width="430" height="190" rx="24" fill="#14233B" stroke="#10B981" stroke-width="3"/><text x="773" y="723" fill="#F8FAFC" font-size="42" font-weight="700" text-anchor="start" font-family="Noto Sans CJK SC, Arial">🐴</text><text x="833" y="723" fill="#F8FAFC" font-size="29" font-weight="700" text-anchor="start" font-family="Noto Sans CJK SC, Arial">马｜Hermes</text><rect x="1001" y="693" width="150" height="42" rx="21" fill="#10B981"/><text x="1076" y="722" fill="#fff" font-size="19" font-weight="700" text-anchor="middle" font-family="Noto Sans CJK SC, Arial">常规任务优先</text><text x="773" y="767" fill="#10B981" font-size="22" font-weight="700" text-anchor="start" font-family="Noto Sans CJK SC, Arial">定位：Claude 执行与 QA 专员</text><text x="773" y="803" fill="#F8FAFC" font-size="20" font-weight="700" text-anchor="start" font-family="Noto Sans CJK SC, Arial">职责：</text><text x="803" y="835" fill="#CBD5E1" font-size="19" font-weight="400" text-anchor="start" font-family="Noto Sans CJK SC, Arial">通用任务、QA、排障、代码审阅</text><text x="803" y="864" fill="#CBD5E1" font-size="19" font-weight="400" text-anchor="start" font-family="Noto Sans CJK SC, Arial">文件操作、Google / GitHub 工作空间、复杂推理</text><rect x="1205" y="675" width="430" height="190" rx="24" fill="#14233B" stroke="#3B82F6" stroke-width="3"/><text x="1233" y="723" fill="#F8FAFC" font-size="42" font-weight="700" text-anchor="start" font-family="Noto Sans CJK SC, Arial">🐂</text><text x="1293" y="723" fill="#F8FAFC" font-size="29" font-weight="700" text-anchor="start" font-family="Noto Sans CJK SC, Arial">牛｜Codex</text><rect x="1461" y="693" width="150" height="42" rx="21" fill="#3B82F6"/><text x="1536" y="722" fill="#fff" font-size="19" font-weight="700" text-anchor="middle" font-family="Noto Sans CJK SC, Arial">关键代码</text><text x="1233" y="767" fill="#3B82F6" font-size="22" font-weight="700" text-anchor="start" font-family="Noto Sans CJK SC, Arial">定位：Gpt 5.5 代码专家</text><text x="1233" y="803" fill="#F8FAFC" font-size="20" font-weight="700" text-anchor="start" font-family="Noto Sans CJK SC, Arial">职责：</text><text x="1263" y="835" fill="#CBD5E1" font-size="19" font-weight="400" text-anchor="start" font-family="Noto Sans CJK SC, Arial">关键代码修改、架构变更、复杂 bug 修复</text><text x="1263" y="864" fill="#CBD5E1" font-size="19" font-weight="400" text-anchor="start" font-family="Noto Sans CJK SC, Arial">代码审计、最小 diff 修复</text><line x1="960" y1="255" x2="960" y2="410" stroke="#F59E0B" stroke-width="5"/><polygon points="960,410 950.5916298792481,394.6545586029289 969.4083701207519,394.6545586029289" fill="#F59E0B"/><text x="960.0" y="320.5" fill="#F59E0B" font-size="22" font-weight="700" text-anchor="middle" font-family="Noto Sans CJK SC, Arial">需求 → 思考拆解 → 派单</text><line x1="800" y1="640" x2="500" y2="675" stroke="#8B5CF6" stroke-width="5"/><polygon points="500,675 514.1518127814204,663.876772276015 516.332309804048,682.5667467556804" fill="#8B5CF6"/><line x1="960" y1="640" x2="960" y2="675" stroke="#8B5CF6" stroke-width="5"/><polygon points="960,675 950.5916298792481,659.6545586029289 969.4083701207519,659.6545586029289" fill="#8B5CF6"/><line x1="1120" y1="640" x2="1420" y2="675" stroke="#8B5CF6" stroke-width="5"/><polygon points="1420,675 1403.667690195952,682.5667467556804 1405.8481872185796,663.8767722760151" fill="#8B5CF6"/><rect x="245" y="980" width="1430" height="60" rx="24" fill="#102038" stroke="#60A5FA" stroke-width="3"/><text x="960" y="1020" fill="#fff" font-size="28" font-weight="700" text-anchor="middle" font-family="Noto Sans CJK SC, Arial">Kenny 提需求 → 猫拆解 → 派给马 / 虾 / 牛 → Agent 回报 → 猫记录与复盘</text></svg>