<svg xmlns="http://www.w3.org/2000/svg" width="1920" height="1080" viewBox="0 0 1920 1080"><rect width="100%" height="100%" fill="#0B162A"/><line x1="0" y1="0" x2="260" y2="1080" stroke="#1F3353" stroke-width="1" opacity="0.35"/><line x1="120" y1="0" x2="380" y2="1080" stroke="#1F3353" stroke-width="1" opacity="0.35"/><line x1="240" y1="0" x2="500" y2="1080" stroke="#1F3353" stroke-width="1" opacity="0.35"/><line x1="360" y1="0" x2="620" y2="1080" stroke="#1F3353" stroke-width="1" opacity="0.35"/><line x1="480" y1="0" x2="740" y2="1080" stroke="#1F3353" stroke-width="1" opacity="0.35"/><line x1="600" y1="0" x2="860" y2="1080" stroke="#1F3353" stroke-width="1" opacity="0.35"/><line x1="720" y1="0" x2="980" y2="1080" stroke="#1F3353" stroke-width="1" opacity="0.35"/><line x1="840" y1="0" x2="1100" y2="1080" stroke="#1F3353" stroke-width="1" opacity="0.35"/><line x1="960" y1="0" x2="1220" y2="1080" stroke="#1F3353" stroke-width="1" opacity="0.35"/><line x1="1080" y1="0" x2="1340" y2="1080" stroke="#1F3353" stroke-width="1" opacity="0.35"/><line x1="1200" y1="0" x2="1460" y2="1080" stroke="#1F3353" stroke-width="1" opacity="0.35"/><line x1="1320" y1="0" x2="1580" y2="1080" stroke="#1F3353" stroke-width="1" opacity="0.35"/><line x1="1440" y1="0" x2="1700" y2="1080" stroke="#1F3353" stroke-width="1" opacity="0.35"/><line x1="1560" y1="0" x2="1820" y2="1080" stroke="#1F3353" stroke-width="1" opacity="0.35"/><line x1="1680" y1="0" x2="1940" y2="1080" stroke="#1F3353" stroke-width="1" opacity="0.35"/><line x1="1800" y1="0" x2="2060" y2="1080" stroke="#1F3353" stroke-width="1" opacity="0.35"/><text x="960.0" y="70" fill="#fff" font-size="56" font-weight="700" text-anchor="middle" font-family="Noto Sans CJK SC, Arial">Kenny 的 AI Agent 协作体系</text><rect x="120" y="150" width="390" height="120" rx="28" fill="#1E2E49" stroke="#F59E0B" stroke-width="3"/><text x="190" y="223" fill="#F59E0B" font-size="58" font-weight="700" text-anchor="middle" font-family="Noto Sans CJK SC, Arial">K</text><text x="250" y="198" fill="#fff" font-size="34" font-weight="700" text-anchor="start" font-family="Noto Sans CJK SC, Arial">Kenny</text><text x="250" y="236" fill="#E2E8F0" font-size="22" font-weight="400" text-anchor="start" font-family="Noto Sans CJK SC, Arial">最终决策者 / 任务发起人</text><rect x="620" y="145" width="700" height="245" rx="24" fill="#14233B" stroke="#8B5CF6" stroke-width="3"/><text x="648" y="193" fill="#F8FAFC" font-size="42" font-weight="700" text-anchor="start" font-family="Noto Sans CJK SC, Arial">🐱</text><text x="708" y="193" fill="#F8FAFC" font-size="29" font-weight="700" text-anchor="start" font-family="Noto Sans CJK SC, Arial">猫｜Notion AI</text><rect x="1146" y="163" width="150" height="42" rx="21" fill="#8B5CF6"/><text x="1221" y="192" fill="#fff" font-size="19" font-weight="700" text-anchor="middle" font-family="Noto Sans CJK SC, Arial">主参谋和调度中枢</text><text x="648" y="237" fill="#8B5CF6" font-size="22" font-weight="700" text-anchor="start" font-family="Noto Sans CJK SC, Arial">定位：无限上下文中枢</text><text x="648" y="273" fill="#F8FAFC" font-size="20" font-weight="700" text-anchor="start" font-family="Noto Sans CJK SC, Arial">职责：</text><text x="678" y="305" fill="#CBD5E1" font-size="19" font-weight="400" text-anchor="start" font-family="Noto Sans CJK SC, Arial">思考、讨论、任务拆解、派单、记录</text><text x="678" y="334" fill="#CBD5E1" font-size="19" font-weight="400" text-anchor="start" font-family="Noto Sans CJK SC, Arial">Notion 操作、长期记忆维护</text><rect x="560" y="430" width="800" height="90" rx="30" fill="#142B4A" stroke="#60A5FA" stroke-width="3"/><text x="960" y="486" fill="#DDF4FF" font-size="34" font-weight="700" text-anchor="middle" font-family="Noto Sans CJK SC, Arial">作战指挥室：需求拆解、派单、执行、回报、复盘</text><rect x="80" y="590" width="560" height="290" rx="24" fill="#14233B" stroke="#F97316" stroke-width="3"/><text x="108" y="638" fill="#F8FAFC" font-size="42" font-weight="700" text-anchor="start" font-family="Noto Sans CJK SC, Arial">🦞</text><text x="168" y="638" fill="#F8FAFC" font-size="29" font-weight="700" text-anchor="start" font-family="Noto Sans CJK SC, Arial">虾｜OpenClaw</text><rect x="466" y="608" width="150" height="42" rx="21" fill="#F97316"/><text x="541" y="637" fill="#fff" font-size="19" font-weight="700" text-anchor="middle" font-family="Noto Sans CJK SC, Arial">生图与备援</text><text x="108" y="682" fill="#F97316" font-size="22" font-weight="700" text-anchor="start" font-family="Noto Sans CJK SC, Arial">定位：GPT 5.5 + GPT Image 2.0 生图主入口</text><text x="108" y="718" fill="#F8FAFC" font-size="20" font-weight="700" text-anchor="start" font-family="Noto Sans CJK SC, Arial">职责：</text><text x="138" y="750" fill="#CBD5E1" font-size="19" font-weight="400" text-anchor="start" font-family="Noto Sans CJK SC, Arial">生图、视觉素材、banner、icon、插图</text><text x="138" y="779" fill="#CBD5E1" font-size="19" font-weight="400" text-anchor="start" font-family="Noto Sans CJK SC, Arial">宣传图、备援执行、短审计、短验证、文档整理</text><text x="108" y="816" fill="#CBD5E1" font-size="18" font-weight="400" text-anchor="start" font-family="Noto Sans CJK SC, Arial">关系：主要接收猫派来的生图和短任务；需要并行时接力</text><rect x="680" y="590" width="560" height="290" rx="24" fill="#14233B" stroke="#10B981" stroke-width="3"/><text x="708" y="638" fill="#F8FAFC" font-size="42" font-weight="700" text-anchor="start" font-family="Noto Sans CJK SC, Arial">🐴</text><text x="768" y="638" fill="#F8FAFC" font-size="29" font-weight="700" text-anchor="start" font-family="Noto Sans CJK SC, Arial">马｜Hermes</text><rect x="1066" y="608" width="150" height="42" rx="21" fill="#10B981"/><text x="1141" y="637" fill="#fff" font-size="19" font-weight="700" text-anchor="middle" font-family="Noto Sans CJK SC, Arial">常规任务优先</text><text x="708" y="682" fill="#10B981" font-size="22" font-weight="700" text-anchor="start" font-family="Noto Sans CJK SC, Arial">定位：Claude 执行与 QA 专员</text><text x="708" y="718" fill="#F8FAFC" font-size="20" font-weight="700" text-anchor="start" font-family="Noto Sans CJK SC, Arial">职责：</text><text x="738" y="750" fill="#CBD5E1" font-size="19" font-weight="400" text-anchor="start" font-family="Noto Sans CJK SC, Arial">通用任务、QA、排障、代码审阅</text><text x="738" y="779" fill="#CBD5E1" font-size="19" font-weight="400" text-anchor="start" font-family="Noto Sans CJK SC, Arial">文件操作、Google / GitHub 工作空间、复杂推理</text><text x="708" y="816" fill="#CBD5E1" font-size="18" font-weight="400" text-anchor="start" font-family="Noto Sans CJK SC, Arial">关系：常规执行默认优先；不负责生图，生图转给虾</text><rect x="1280" y="590" width="560" height="290" rx="24" fill="#14233B" stroke="#3B82F6" stroke-width="3"/><text x="1308" y="638" fill="#F8FAFC" font-size="42" font-weight="700" text-anchor="start" font-family="Noto Sans CJK SC, Arial">🐂</text><text x="1368" y="638" fill="#F8FAFC" font-size="29" font-weight="700" text-anchor="start" font-family="Noto Sans CJK SC, Arial">牛｜Codex</text><rect x="1666" y="608" width="150" height="42" rx="21" fill="#3B82F6"/><text x="1741" y="637" fill="#fff" font-size="19" font-weight="700" text-anchor="middle" font-family="Noto Sans CJK SC, Arial">关键代码</text><text x="1308" y="682" fill="#3B82F6" font-size="22" font-weight="700" text-anchor="start" font-family="Noto Sans CJK SC, Arial">定位：Gpt 5.5 代码专家</text><text x="1308" y="718" fill="#F8FAFC" font-size="20" font-weight="700" text-anchor="start" font-family="Noto Sans CJK SC, Arial">职责：</text><text x="1338" y="750" fill="#CBD5E1" font-size="19" font-weight="400" text-anchor="start" font-family="Noto Sans CJK SC, Arial">关键代码修改、架构变更、复杂 bug 修复</text><text x="1338" y="779" fill="#CBD5E1" font-size="19" font-weight="400" text-anchor="start" font-family="Noto Sans CJK SC, Arial">代码审计、最小 diff 修复</text><text x="1308" y="816" fill="#CBD5E1" font-size="18" font-weight="400" text-anchor="start" font-family="Noto Sans CJK SC, Arial">关系：只处理高价值代码任务，由猫写精确 Prompt 后</text><text x="1308" y="842" fill="#CBD5E1" font-size="18" font-weight="400" text-anchor="start" font-family="Noto Sans CJK SC, Arial">派单</text><line x1="510" y1="215" x2="620" y2="245" stroke="#F59E0B" stroke-width="5"/><polygon points="620,245 602.7197673802777,250.0392023781833 607.6707792580862,231.88549215955234" fill="#F59E0B"/><line x1="960" y1="390" x2="360" y2="590" stroke="#8B5CF6" stroke-width="5"/><polygon points="360,590 371.58277608946935,576.2217817530271 377.5331518197592,594.0729089438967" fill="#8B5CF6"/><line x1="960" y1="390" x2="960" y2="590" stroke="#8B5CF6" stroke-width="5"/><polygon points="960,590 950.5916298792481,574.6545586029289 969.4083701207519,574.6545586029289" fill="#8B5CF6"/><line x1="960" y1="390" x2="1560" y2="590" stroke="#8B5CF6" stroke-width="5"/><polygon points="1560,590 1542.4668481802407,594.0729089438967 1548.4172239105305,576.2217817530271" fill="#8B5CF6"/><rect x="245" y="980" width="1430" height="60" rx="24" fill="#102038" stroke="#60A5FA" stroke-width="3"/><text x="960" y="1020" fill="#fff" font-size="28" font-weight="700" text-anchor="middle" font-family="Noto Sans CJK SC, Arial">Kenny 提需求 → 猫拆解 → 派给马 / 虾 / 牛 → Agent 回报 → 猫记录与复盘</text></svg>