<svg xmlns="http://www.w3.org/2000/svg" width="1920" height="1080" viewBox="0 0 1920 1080"><rect width="100%" height="100%" fill="#0B162A"/><line x1="0" y1="0" x2="260" y2="1080" stroke="#1F3353" stroke-width="1" opacity="0.35"/><line x1="120" y1="0" x2="380" y2="1080" stroke="#1F3353" stroke-width="1" opacity="0.35"/><line x1="240" y1="0" x2="500" y2="1080" stroke="#1F3353" stroke-width="1" opacity="0.35"/><line x1="360" y1="0" x2="620" y2="1080" stroke="#1F3353" stroke-width="1" opacity="0.35"/><line x1="480" y1="0" x2="740" y2="1080" stroke="#1F3353" stroke-width="1" opacity="0.35"/><line x1="600" y1="0" x2="860" y2="1080" stroke="#1F3353" stroke-width="1" opacity="0.35"/><line x1="720" y1="0" x2="980" y2="1080" stroke="#1F3353" stroke-width="1" opacity="0.35"/><line x1="840" y1="0" x2="1100" y2="1080" stroke="#1F3353" stroke-width="1" opacity="0.35"/><line x1="960" y1="0" x2="1220" y2="1080" stroke="#1F3353" stroke-width="1" opacity="0.35"/><line x1="1080" y1="0" x2="1340" y2="1080" stroke="#1F3353" stroke-width="1" opacity="0.35"/><line x1="1200" y1="0" x2="1460" y2="1080" stroke="#1F3353" stroke-width="1" opacity="0.35"/><line x1="1320" y1="0" x2="1580" y2="1080" stroke="#1F3353" stroke-width="1" opacity="0.35"/><line x1="1440" y1="0" x2="1700" y2="1080" stroke="#1F3353" stroke-width="1" opacity="0.35"/><line x1="1560" y1="0" x2="1820" y2="1080" stroke="#1F3353" stroke-width="1" opacity="0.35"/><line x1="1680" y1="0" x2="1940" y2="1080" stroke="#1F3353" stroke-width="1" opacity="0.35"/><line x1="1800" y1="0" x2="2060" y2="1080" stroke="#1F3353" stroke-width="1" opacity="0.35"/><text x="960.0" y="70" fill="#fff" font-size="56" font-weight="700" text-anchor="middle" font-family="Noto Sans CJK SC, Arial">Kenny 的 AI Agent 协作体系</text><rect x="765" y="120" width="390" height="120" rx="28" fill="#1E2E49" stroke="#F59E0B" stroke-width="3"/><text x="835" y="193" fill="#F59E0B" font-size="58" font-weight="700" text-anchor="middle" font-family="Noto Sans CJK SC, Arial">K</text><text x="895" y="168" fill="#fff" font-size="34" font-weight="700" text-anchor="start" font-family="Noto Sans CJK SC, Arial">Kenny</text><text x="895" y="206" fill="#E2E8F0" font-size="22" font-weight="400" text-anchor="start" font-family="Noto Sans CJK SC, Arial">最终决策者 / 任务发起人</text><rect x="690" y="300" width="540" height="235" rx="24" fill="#14233B" stroke="#8B5CF6" stroke-width="3"/><text x="718" y="348" fill="#F8FAFC" font-size="42" font-weight="700" text-anchor="start" font-family="Noto Sans CJK SC, Arial">🐱</text><text x="778" y="348" fill="#F8FAFC" font-size="29" font-weight="700" text-anchor="start" font-family="Noto Sans CJK SC, Arial">猫｜Notion AI</text><rect x="1056" y="318" width="150" height="42" rx="21" fill="#8B5CF6"/><text x="1131" y="347" fill="#fff" font-size="19" font-weight="700" text-anchor="middle" font-family="Noto Sans CJK SC, Arial">主参谋和调度中枢</text><text x="718" y="392" fill="#8B5CF6" font-size="22" font-weight="700" text-anchor="start" font-family="Noto Sans CJK SC, Arial">定位：无限上下文中枢</text><text x="718" y="428" fill="#F8FAFC" font-size="20" font-weight="700" text-anchor="start" font-family="Noto Sans CJK SC, Arial">职责：</text><text x="748" y="460" fill="#CBD5E1" font-size="19" font-weight="400" text-anchor="start" font-family="Noto Sans CJK SC, Arial">思考、讨论、任务拆解、派单、记录</text><text x="748" y="489" fill="#CBD5E1" font-size="19" font-weight="400" text-anchor="start" font-family="Noto Sans CJK SC, Arial">Notion 操作、长期记忆维护</text><rect x="80" y="570" width="560" height="310" rx="24" fill="#14233B" stroke="#F97316" stroke-width="3"/><text x="108" y="618" fill="#F8FAFC" font-size="42" font-weight="700" text-anchor="start" font-family="Noto Sans CJK SC, Arial">🦞</text><text x="168" y="618" fill="#F8FAFC" font-size="29" font-weight="700" text-anchor="start" font-family="Noto Sans CJK SC, Arial">虾｜OpenClaw</text><rect x="466" y="588" width="150" height="42" rx="21" fill="#F97316"/><text x="541" y="617" fill="#fff" font-size="19" font-weight="700" text-anchor="middle" font-family="Noto Sans CJK SC, Arial">生图与备援</text><text x="108" y="662" fill="#F97316" font-size="22" font-weight="700" text-anchor="start" font-family="Noto Sans CJK SC, Arial">定位：GPT 5.5 + GPT Image 2.0 生图主入口</text><text x="108" y="698" fill="#F8FAFC" font-size="20" font-weight="700" text-anchor="start" font-family="Noto Sans CJK SC, Arial">职责：</text><text x="138" y="730" fill="#CBD5E1" font-size="19" font-weight="400" text-anchor="start" font-family="Noto Sans CJK SC, Arial">生图、视觉素材、banner、icon、插图</text><text x="138" y="759" fill="#CBD5E1" font-size="19" font-weight="400" text-anchor="start" font-family="Noto Sans CJK SC, Arial">宣传图、备援执行、短审计、短验证、文档整理</text><text x="108" y="796" fill="#CBD5E1" font-size="18" font-weight="400" text-anchor="start" font-family="Noto Sans CJK SC, Arial">关系：主要接收猫派来的生图和短任务；需要并行时接力</text><rect x="680" y="630" width="560" height="310" rx="24" fill="#14233B" stroke="#10B981" stroke-width="3"/><text x="708" y="678" fill="#F8FAFC" font-size="42" font-weight="700" text-anchor="start" font-family="Noto Sans CJK SC, Arial">🐴</text><text x="768" y="678" fill="#F8FAFC" font-size="29" font-weight="700" text-anchor="start" font-family="Noto Sans CJK SC, Arial">马｜Hermes</text><rect x="1066" y="648" width="150" height="42" rx="21" fill="#10B981"/><text x="1141" y="677" fill="#fff" font-size="19" font-weight="700" text-anchor="middle" font-family="Noto Sans CJK SC, Arial">常规任务优先</text><text x="708" y="722" fill="#10B981" font-size="22" font-weight="700" text-anchor="start" font-family="Noto Sans CJK SC, Arial">定位：Claude 执行与 QA 专员</text><text x="708" y="758" fill="#F8FAFC" font-size="20" font-weight="700" text-anchor="start" font-family="Noto Sans CJK SC, Arial">职责：</text><text x="738" y="790" fill="#CBD5E1" font-size="19" font-weight="400" text-anchor="start" font-family="Noto Sans CJK SC, Arial">通用任务、QA、排障、代码审阅</text><text x="738" y="819" fill="#CBD5E1" font-size="19" font-weight="400" text-anchor="start" font-family="Noto Sans CJK SC, Arial">文件操作、Google / GitHub 工作空间、复杂推理</text><text x="708" y="856" fill="#CBD5E1" font-size="18" font-weight="400" text-anchor="start" font-family="Noto Sans CJK SC, Arial">关系：常规执行默认优先；不负责生图，生图转给虾</text><rect x="1280" y="570" width="560" height="310" rx="24" fill="#14233B" stroke="#3B82F6" stroke-width="3"/><text x="1308" y="618" fill="#F8FAFC" font-size="42" font-weight="700" text-anchor="start" font-family="Noto Sans CJK SC, Arial">🐂</text><text x="1368" y="618" fill="#F8FAFC" font-size="29" font-weight="700" text-anchor="start" font-family="Noto Sans CJK SC, Arial">牛｜Codex</text><rect x="1666" y="588" width="150" height="42" rx="21" fill="#3B82F6"/><text x="1741" y="617" fill="#fff" font-size="19" font-weight="700" text-anchor="middle" font-family="Noto Sans CJK SC, Arial">关键代码</text><text x="1308" y="662" fill="#3B82F6" font-size="22" font-weight="700" text-anchor="start" font-family="Noto Sans CJK SC, Arial">定位：Gpt 5.5 代码专家</text><text x="1308" y="698" fill="#F8FAFC" font-size="20" font-weight="700" text-anchor="start" font-family="Noto Sans CJK SC, Arial">职责：</text><text x="1338" y="730" fill="#CBD5E1" font-size="19" font-weight="400" text-anchor="start" font-family="Noto Sans CJK SC, Arial">关键代码修改、架构变更、复杂 bug 修复</text><text x="1338" y="759" fill="#CBD5E1" font-size="19" font-weight="400" text-anchor="start" font-family="Noto Sans CJK SC, Arial">代码审计、最小 diff 修复</text><text x="1308" y="796" fill="#CBD5E1" font-size="18" font-weight="400" text-anchor="start" font-family="Noto Sans CJK SC, Arial">关系：只处理高价值代码任务，由猫写精确 Prompt 后</text><text x="1308" y="822" fill="#CBD5E1" font-size="18" font-weight="400" text-anchor="start" font-family="Noto Sans CJK SC, Arial">派单</text><line x1="960" y1="240" x2="960" y2="300" stroke="#F59E0B" stroke-width="5"/><polygon points="960,300 950.5916298792481,284.6545586029289 969.4083701207519,284.6545586029289" fill="#F59E0B"/><text x="960.0" y="258.0" fill="#F59E0B" font-size="22" font-weight="700" text-anchor="middle" font-family="Noto Sans CJK SC, Arial">需求 → 思考拆解 → 派单</text><line x1="805" y1="420" x2="600" y2="570" stroke="#8B5CF6" stroke-width="5"/><polygon points="600,570 606.8284999808808,553.3455234843268 617.9399731552205,568.5312034892577" fill="#8B5CF6"/><line x1="960" y1="535" x2="960" y2="630" stroke="#8B5CF6" stroke-width="5"/><polygon points="960,630 950.5916298792481,614.6545586029289 969.4083701207519,614.6545586029289" fill="#8B5CF6"/><line x1="1115" y1="420" x2="1320" y2="570" stroke="#8B5CF6" stroke-width="5"/><polygon points="1320,570 1302.0600268447795,568.5312034892577 1313.171500019119,553.3455234843268" fill="#8B5CF6"/><line x1="1240" y1="780" x2="1280" y2="730" stroke="#38BDF8" stroke-width="5"/><polygon points="1280,730 1277.7604815317038,747.8601387741014 1263.0670759817222,736.105414334116" fill="#38BDF8"/><text x="1260.0" y="743.0" fill="#38BDF8" font-size="22" font-weight="700" text-anchor="middle" font-family="Noto Sans CJK SC, Arial">马发现问题 → 牛修关键代码</text><line x1="1280" y1="830" x2="1240" y2="870" stroke="#38BDF8" stroke-width="5"/><polygon points="1240,870 1244.1981433598733,852.4964120155337 1257.5035879844663,865.8018566401267" fill="#38BDF8"/><text x="1260.0" y="838.0" fill="#38BDF8" font-size="22" font-weight="700" text-anchor="middle" font-family="Noto Sans CJK SC, Arial">牛修复后 → 马回归验证</text><line x1="680" y1="820" x2="640" y2="820" stroke="#F97316" stroke-width="5"/><polygon points="640,820 655.3454413970711,810.5916298792481 655.3454413970711,829.4083701207519" fill="#F97316"/><text x="660.0" y="808.0" fill="#F97316" font-size="22" font-weight="700" text-anchor="middle" font-family="Noto Sans CJK SC, Arial">触顶 / 并行 → 虾接力</text><line x1="360" y1="570" x2="690" y2="420" stroke="#F97316" stroke-width="5"/><polygon points="690,420 679.9232358272819,434.9150535972026 672.1368133131972,417.784924066216" fill="#F97316"/><text x="525.0" y="483.0" fill="#F97316" font-size="22" font-weight="700" text-anchor="middle" font-family="Noto Sans CJK SC, Arial">素材 → 记录整理</text><rect x="245" y="980" width="1430" height="60" rx="24" fill="#102038" stroke="#60A5FA" stroke-width="3"/><text x="960" y="1020" fill="#fff" font-size="28" font-weight="700" text-anchor="middle" font-family="Noto Sans CJK SC, Arial">Kenny 提需求 → 猫拆解 → 派给马 / 虾 / 牛 → Agent 回报 → 猫记录与复盘</text></svg>