<svg xmlns="http://www.w3.org/2000/svg" width="1920" height="1080" viewBox="0 0 1920 1080"><rect width="100%" height="100%" fill="#0B162A"/><line x1="0" y1="0" x2="260" y2="1080" stroke="#1F3353" stroke-width="1" opacity="0.35"/><line x1="120" y1="0" x2="380" y2="1080" stroke="#1F3353" stroke-width="1" opacity="0.35"/><line x1="240" y1="0" x2="500" y2="1080" stroke="#1F3353" stroke-width="1" opacity="0.35"/><line x1="360" y1="0" x2="620" y2="1080" stroke="#1F3353" stroke-width="1" opacity="0.35"/><line x1="480" y1="0" x2="740" y2="1080" stroke="#1F3353" stroke-width="1" opacity="0.35"/><line x1="600" y1="0" x2="860" y2="1080" stroke="#1F3353" stroke-width="1" opacity="0.35"/><line x1="720" y1="0" x2="980" y2="1080" stroke="#1F3353" stroke-width="1" opacity="0.35"/><line x1="840" y1="0" x2="1100" y2="1080" stroke="#1F3353" stroke-width="1" opacity="0.35"/><line x1="960" y1="0" x2="1220" y2="1080" stroke="#1F3353" stroke-width="1" opacity="0.35"/><line x1="1080" y1="0" x2="1340" y2="1080" stroke="#1F3353" stroke-width="1" opacity="0.35"/><line x1="1200" y1="0" x2="1460" y2="1080" stroke="#1F3353" stroke-width="1" opacity="0.35"/><line x1="1320" y1="0" x2="1580" y2="1080" stroke="#1F3353" stroke-width="1" opacity="0.35"/><line x1="1440" y1="0" x2="1700" y2="1080" stroke="#1F3353" stroke-width="1" opacity="0.35"/><line x1="1560" y1="0" x2="1820" y2="1080" stroke="#1F3353" stroke-width="1" opacity="0.35"/><line x1="1680" y1="0" x2="1940" y2="1080" stroke="#1F3353" stroke-width="1" opacity="0.35"/><line x1="1800" y1="0" x2="2060" y2="1080" stroke="#1F3353" stroke-width="1" opacity="0.35"/><text x="960.0" y="70" fill="#fff" font-size="56" font-weight="700" text-anchor="middle" font-family="Noto Sans CJK SC, Arial">Kenny 的 AI Agent 协作体系</text><rect x="765" y="445" width="390" height="120" rx="28" fill="#1E2E49" stroke="#F59E0B" stroke-width="3"/><text x="835" y="518" fill="#F59E0B" font-size="58" font-weight="700" text-anchor="middle" font-family="Noto Sans CJK SC, Arial">K</text><text x="895" y="493" fill="#fff" font-size="34" font-weight="700" text-anchor="start" font-family="Noto Sans CJK SC, Arial">Kenny</text><text x="895" y="531" fill="#E2E8F0" font-size="22" font-weight="400" text-anchor="start" font-family="Noto Sans CJK SC, Arial">最终决策者 / 任务发起人</text><rect x="690" y="150" width="540" height="225" rx="24" fill="#14233B" stroke="#8B5CF6" stroke-width="3"/><text x="718" y="198" fill="#F8FAFC" font-size="42" font-weight="700" text-anchor="start" font-family="Noto Sans CJK SC, Arial">🐱</text><text x="778" y="198" fill="#F8FAFC" font-size="29" font-weight="700" text-anchor="start" font-family="Noto Sans CJK SC, Arial">猫｜Notion AI</text><rect x="1056" y="168" width="150" height="42" rx="21" fill="#8B5CF6"/><text x="1131" y="197" fill="#fff" font-size="19" font-weight="700" text-anchor="middle" font-family="Noto Sans CJK SC, Arial">主参谋和调度中枢</text><text x="718" y="242" fill="#8B5CF6" font-size="22" font-weight="700" text-anchor="start" font-family="Noto Sans CJK SC, Arial">定位：无限上下文中枢</text><text x="718" y="278" fill="#F8FAFC" font-size="20" font-weight="700" text-anchor="start" font-family="Noto Sans CJK SC, Arial">职责：</text><text x="748" y="310" fill="#CBD5E1" font-size="19" font-weight="400" text-anchor="start" font-family="Noto Sans CJK SC, Arial">思考、讨论、任务拆解、派单、记录</text><text x="748" y="339" fill="#CBD5E1" font-size="19" font-weight="400" text-anchor="start" font-family="Noto Sans CJK SC, Arial">Notion 操作、长期记忆维护</text><rect x="80" y="520" width="560" height="240" rx="24" fill="#14233B" stroke="#F97316" stroke-width="3"/><text x="108" y="568" fill="#F8FAFC" font-size="42" font-weight="700" text-anchor="start" font-family="Noto Sans CJK SC, Arial">🦞</text><text x="168" y="568" fill="#F8FAFC" font-size="29" font-weight="700" text-anchor="start" font-family="Noto Sans CJK SC, Arial">虾｜OpenClaw</text><rect x="466" y="538" width="150" height="42" rx="21" fill="#F97316"/><text x="541" y="567" fill="#fff" font-size="19" font-weight="700" text-anchor="middle" font-family="Noto Sans CJK SC, Arial">生图与备援</text><text x="108" y="612" fill="#F97316" font-size="22" font-weight="700" text-anchor="start" font-family="Noto Sans CJK SC, Arial">定位：GPT 5.5 + GPT Image 2.0 生图主入口</text><text x="108" y="648" fill="#F8FAFC" font-size="20" font-weight="700" text-anchor="start" font-family="Noto Sans CJK SC, Arial">职责：</text><text x="138" y="680" fill="#CBD5E1" font-size="19" font-weight="400" text-anchor="start" font-family="Noto Sans CJK SC, Arial">生图、视觉素材、banner、icon、插图</text><text x="138" y="709" fill="#CBD5E1" font-size="19" font-weight="400" text-anchor="start" font-family="Noto Sans CJK SC, Arial">宣传图、备援执行、短审计、短验证、文档整理</text><rect x="680" y="750" width="560" height="240" rx="24" fill="#14233B" stroke="#10B981" stroke-width="3"/><text x="708" y="798" fill="#F8FAFC" font-size="42" font-weight="700" text-anchor="start" font-family="Noto Sans CJK SC, Arial">🐴</text><text x="768" y="798" fill="#F8FAFC" font-size="29" font-weight="700" text-anchor="start" font-family="Noto Sans CJK SC, Arial">马｜Hermes</text><rect x="1066" y="768" width="150" height="42" rx="21" fill="#10B981"/><text x="1141" y="797" fill="#fff" font-size="19" font-weight="700" text-anchor="middle" font-family="Noto Sans CJK SC, Arial">常规任务优先</text><text x="708" y="842" fill="#10B981" font-size="22" font-weight="700" text-anchor="start" font-family="Noto Sans CJK SC, Arial">定位：Claude 执行与 QA 专员</text><text x="708" y="878" fill="#F8FAFC" font-size="20" font-weight="700" text-anchor="start" font-family="Noto Sans CJK SC, Arial">职责：</text><text x="738" y="910" fill="#CBD5E1" font-size="19" font-weight="400" text-anchor="start" font-family="Noto Sans CJK SC, Arial">通用任务、QA、排障、代码审阅</text><text x="738" y="939" fill="#CBD5E1" font-size="19" font-weight="400" text-anchor="start" font-family="Noto Sans CJK SC, Arial">文件操作、Google / GitHub 工作空间、复杂推理</text><rect x="1280" y="520" width="560" height="240" rx="24" fill="#14233B" stroke="#3B82F6" stroke-width="3"/><text x="1308" y="568" fill="#F8FAFC" font-size="42" font-weight="700" text-anchor="start" font-family="Noto Sans CJK SC, Arial">🐂</text><text x="1368" y="568" fill="#F8FAFC" font-size="29" font-weight="700" text-anchor="start" font-family="Noto Sans CJK SC, Arial">牛｜Codex</text><rect x="1666" y="538" width="150" height="42" rx="21" fill="#3B82F6"/><text x="1741" y="567" fill="#fff" font-size="19" font-weight="700" text-anchor="middle" font-family="Noto Sans CJK SC, Arial">关键代码</text><text x="1308" y="612" fill="#3B82F6" font-size="22" font-weight="700" text-anchor="start" font-family="Noto Sans CJK SC, Arial">定位：Gpt 5.5 代码专家</text><text x="1308" y="648" fill="#F8FAFC" font-size="20" font-weight="700" text-anchor="start" font-family="Noto Sans CJK SC, Arial">职责：</text><text x="1338" y="680" fill="#CBD5E1" font-size="19" font-weight="400" text-anchor="start" font-family="Noto Sans CJK SC, Arial">关键代码修改、架构变更、复杂 bug 修复</text><text x="1338" y="709" fill="#CBD5E1" font-size="19" font-weight="400" text-anchor="start" font-family="Noto Sans CJK SC, Arial">代码审计、最小 diff 修复</text><line x1="960" y1="505" x2="960" y2="375" stroke="#8B5CF6" stroke-width="5"/><polygon points="960,375 969.4083701207519,390.3454413970711 950.5916298792481,390.3454413970711" fill="#8B5CF6"/><line x1="960" y1="505" x2="360" y2="520" stroke="#8B5CF6" stroke-width="5"/><polygon points="360,520 375.105512408768,510.21105241261574 375.5757839778956,529.0219151777177" fill="#8B5CF6"/><line x1="960" y1="565" x2="960" y2="750" stroke="#8B5CF6" stroke-width="5"/><polygon points="960,750 950.5916298792481,734.6545586029289 969.4083701207519,734.6545586029289" fill="#8B5CF6"/><line x1="1155" y1="505" x2="1280" y2="640" stroke="#8B5CF6" stroke-width="5"/><polygon points="1280,640 1262.670691866728,635.1322408007263 1276.4776758691587,622.3479963540312" fill="#8B5CF6"/><line x1="1240" y1="870" x2="1280" y2="680" stroke="#38BDF8" stroke-width="5"/><polygon points="1280,680 1286.0452367946048,696.9545012341017 1267.6321196771298,693.0780555251596" fill="#38BDF8"/><text x="1260.0" y="763.0" fill="#38BDF8" font-size="22" font-weight="700" text-anchor="middle" font-family="Noto Sans CJK SC, Arial">马 → 牛：关键代码</text><line x1="1280" y1="740" x2="1240" y2="870" stroke="#38BDF8" stroke-width="5"/><polygon points="1240,870 1235.5205544913426,852.5662807199677 1253.5051998267456,858.1000177462455" fill="#38BDF8"/><text x="1260.0" y="793.0" fill="#38BDF8" font-size="22" font-weight="700" text-anchor="middle" font-family="Noto Sans CJK SC, Arial">牛 → 马：回归验证</text><line x1="700" y1="830" x2="640" y2="650" stroke="#F97316" stroke-width="5"/><polygon points="640,650 653.7782182469729,661.5827760894693 635.9270910561033,667.5331518197593" fill="#F97316"/><text x="670.0" y="728.0" fill="#F97316" font-size="22" font-weight="700" text-anchor="middle" font-family="Noto Sans CJK SC, Arial">马 → 虾：接力</text><line x1="360" y1="520" x2="690" y2="260" stroke="#F97316" stroke-width="5"/><polygon points="690,260 683.7688625412846,276.8870638647041 672.1237046106053,262.1066711065342" fill="#F97316"/><text x="525.0" y="378.0" fill="#F97316" font-size="22" font-weight="700" text-anchor="middle" font-family="Noto Sans CJK SC, Arial">虾 → 猫：记录整理</text><rect x="245" y="980" width="1430" height="60" rx="24" fill="#102038" stroke="#60A5FA" stroke-width="3"/><text x="960" y="1020" fill="#fff" font-size="28" font-weight="700" text-anchor="middle" font-family="Noto Sans CJK SC, Arial">Kenny 提需求 → 猫拆解 → 派给马 / 虾 / 牛 → Agent 回报 → 猫记录与复盘</text></svg>